<mxfile host="app.diagrams.net" modified="2023-09-06T09:44:24.779Z" agent="Mozilla/5.0 (Windows NT 10.0; Win64; x64) AppleWebKit/537.36 (KHTML, like Gecko) Chrome/116.0.0.0 Safari/537.36" etag="KawCxBd5YYuwzG1fPVCD" version="21.7.0" type="github">
  <diagram name="第 1 页" id="upXz9BzhTJYy54ERLJYz">
    <mxGraphModel dx="2261" dy="758" grid="1" gridSize="10" guides="1" tooltips="1" connect="1" arrows="1" fold="1" page="1" pageScale="1" pageWidth="827" pageHeight="1169" math="0" shadow="0">
      <root>
        <mxCell id="0" />
        <mxCell id="1" parent="0" />
        <mxCell id="JHcrPFv-tLOBYCpDAyQ4-1" value="XmlMapperBuilder" style="swimlane;fontStyle=1;align=center;verticalAlign=top;childLayout=stackLayout;horizontal=1;startSize=26;horizontalStack=0;resizeParent=1;resizeParentMax=0;resizeLast=0;collapsible=1;marginBottom=0;whiteSpace=wrap;html=1;fillColor=#dae8fc;strokeColor=#6c8ebf;" vertex="1" parent="1">
          <mxGeometry x="60" y="80" width="270" height="130" as="geometry" />
        </mxCell>
        <mxCell id="JHcrPFv-tLOBYCpDAyQ4-2" value="- element: Element" style="text;strokeColor=none;fillColor=none;align=left;verticalAlign=top;spacingLeft=4;spacingRight=4;overflow=hidden;rotatable=0;points=[[0,0.5],[1,0.5]];portConstraint=eastwest;whiteSpace=wrap;html=1;" vertex="1" parent="JHcrPFv-tLOBYCpDAyQ4-1">
          <mxGeometry y="26" width="270" height="26" as="geometry" />
        </mxCell>
        <mxCell id="JHcrPFv-tLOBYCpDAyQ4-3" value="" style="line;strokeWidth=1;fillColor=none;align=left;verticalAlign=middle;spacingTop=-1;spacingLeft=3;spacingRight=3;rotatable=0;labelPosition=right;points=[];portConstraint=eastwest;strokeColor=inherit;" vertex="1" parent="JHcrPFv-tLOBYCpDAyQ4-1">
          <mxGeometry y="52" width="270" height="8" as="geometry" />
        </mxCell>
        <mxCell id="JHcrPFv-tLOBYCpDAyQ4-4" value="+ parse():&amp;nbsp; Configuration&lt;br&gt;- buildStatementFromContext(List&amp;lt;Element list&amp;gt;)&lt;br&gt;- configurationElement(Element element)" style="text;strokeColor=none;fillColor=none;align=left;verticalAlign=top;spacingLeft=4;spacingRight=4;overflow=hidden;rotatable=0;points=[[0,0.5],[1,0.5]];portConstraint=eastwest;whiteSpace=wrap;html=1;" vertex="1" parent="JHcrPFv-tLOBYCpDAyQ4-1">
          <mxGeometry y="60" width="270" height="70" as="geometry" />
        </mxCell>
        <mxCell id="JHcrPFv-tLOBYCpDAyQ4-5" value="" style="rounded=1;whiteSpace=wrap;html=1;" vertex="1" parent="1">
          <mxGeometry x="400" y="81" width="270" height="130" as="geometry" />
        </mxCell>
        <mxCell id="JHcrPFv-tLOBYCpDAyQ4-6" value="" style="rounded=1;whiteSpace=wrap;html=1;" vertex="1" parent="1">
          <mxGeometry x="440" y="106" width="80" height="35" as="geometry" />
        </mxCell>
        <mxCell id="JHcrPFv-tLOBYCpDAyQ4-7" value="" style="rounded=1;whiteSpace=wrap;html=1;" vertex="1" parent="1">
          <mxGeometry x="550" y="106" width="80" height="35" as="geometry" />
        </mxCell>
        <mxCell id="JHcrPFv-tLOBYCpDAyQ4-8" value="" style="rounded=1;whiteSpace=wrap;html=1;" vertex="1" parent="1">
          <mxGeometry x="550" y="161" width="80" height="35" as="geometry" />
        </mxCell>
        <mxCell id="JHcrPFv-tLOBYCpDAyQ4-9" value="" style="rounded=1;whiteSpace=wrap;html=1;" vertex="1" parent="1">
          <mxGeometry x="440" y="161" width="80" height="35" as="geometry" />
        </mxCell>
        <mxCell id="JHcrPFv-tLOBYCpDAyQ4-10" value="&lt;font style=&quot;font-size: 19px;&quot;&gt;select&lt;/font&gt;" style="text;html=1;strokeColor=none;fillColor=none;align=center;verticalAlign=middle;whiteSpace=wrap;rounded=0;" vertex="1" parent="1">
          <mxGeometry x="445" y="108.5" width="70" height="30" as="geometry" />
        </mxCell>
        <mxCell id="JHcrPFv-tLOBYCpDAyQ4-11" value="&lt;font style=&quot;font-size: 19px;&quot;&gt;update&lt;/font&gt;" style="text;html=1;strokeColor=none;fillColor=none;align=center;verticalAlign=middle;whiteSpace=wrap;rounded=0;" vertex="1" parent="1">
          <mxGeometry x="555" y="108.5" width="70" height="30" as="geometry" />
        </mxCell>
        <mxCell id="JHcrPFv-tLOBYCpDAyQ4-12" value="&lt;font style=&quot;font-size: 19px;&quot;&gt;delete&lt;/font&gt;" style="text;html=1;strokeColor=none;fillColor=none;align=center;verticalAlign=middle;whiteSpace=wrap;rounded=0;" vertex="1" parent="1">
          <mxGeometry x="555" y="163.5" width="70" height="30" as="geometry" />
        </mxCell>
        <mxCell id="JHcrPFv-tLOBYCpDAyQ4-13" value="&lt;font style=&quot;font-size: 19px;&quot;&gt;insert&lt;/font&gt;" style="text;html=1;strokeColor=none;fillColor=none;align=center;verticalAlign=middle;whiteSpace=wrap;rounded=0;" vertex="1" parent="1">
          <mxGeometry x="445" y="163.5" width="70" height="30" as="geometry" />
        </mxCell>
        <mxCell id="JHcrPFv-tLOBYCpDAyQ4-14" value="MapperBuilderAssistant" style="swimlane;fontStyle=1;align=center;verticalAlign=top;childLayout=stackLayout;horizontal=1;startSize=26;horizontalStack=0;resizeParent=1;resizeParentMax=0;resizeLast=0;collapsible=1;marginBottom=0;whiteSpace=wrap;html=1;fillColor=#dae8fc;strokeColor=#6c8ebf;" vertex="1" parent="1">
          <mxGeometry x="60" y="280" width="270" height="130" as="geometry" />
        </mxCell>
        <mxCell id="JHcrPFv-tLOBYCpDAyQ4-15" value="- currentNamespace: String&lt;br&gt;- resource: String" style="text;strokeColor=none;fillColor=none;align=left;verticalAlign=top;spacingLeft=4;spacingRight=4;overflow=hidden;rotatable=0;points=[[0,0.5],[1,0.5]];portConstraint=eastwest;whiteSpace=wrap;html=1;" vertex="1" parent="JHcrPFv-tLOBYCpDAyQ4-14">
          <mxGeometry y="26" width="270" height="44" as="geometry" />
        </mxCell>
        <mxCell id="JHcrPFv-tLOBYCpDAyQ4-16" value="" style="line;strokeWidth=1;fillColor=none;align=left;verticalAlign=middle;spacingTop=-1;spacingLeft=3;spacingRight=3;rotatable=0;labelPosition=right;points=[];portConstraint=eastwest;strokeColor=inherit;" vertex="1" parent="JHcrPFv-tLOBYCpDAyQ4-14">
          <mxGeometry y="70" width="270" height="8" as="geometry" />
        </mxCell>
        <mxCell id="JHcrPFv-tLOBYCpDAyQ4-17" value="+ addMappedStatement()&lt;br&gt;+ setStatementResultMap()" style="text;strokeColor=none;fillColor=none;align=left;verticalAlign=top;spacingLeft=4;spacingRight=4;overflow=hidden;rotatable=0;points=[[0,0.5],[1,0.5]];portConstraint=eastwest;whiteSpace=wrap;html=1;" vertex="1" parent="JHcrPFv-tLOBYCpDAyQ4-14">
          <mxGeometry y="78" width="270" height="52" as="geometry" />
        </mxCell>
        <mxCell id="JHcrPFv-tLOBYCpDAyQ4-18" value="Configuration" style="swimlane;fontStyle=1;align=center;verticalAlign=top;childLayout=stackLayout;horizontal=1;startSize=26;horizontalStack=0;resizeParent=1;resizeParentMax=0;resizeLast=0;collapsible=1;marginBottom=0;whiteSpace=wrap;html=1;fillColor=#dae8fc;strokeColor=#6c8ebf;" vertex="1" parent="1">
          <mxGeometry x="60" y="470" width="270" height="140" as="geometry" />
        </mxCell>
        <mxCell id="JHcrPFv-tLOBYCpDAyQ4-19" value="# mapperRegistry: MapperRegistry&lt;br&gt;# mappedStatements: Map&amp;lt;String, MappedStatement&amp;gt;" style="text;strokeColor=none;fillColor=none;align=left;verticalAlign=top;spacingLeft=4;spacingRight=4;overflow=hidden;rotatable=0;points=[[0,0.5],[1,0.5]];portConstraint=eastwest;whiteSpace=wrap;html=1;" vertex="1" parent="JHcrPFv-tLOBYCpDAyQ4-18">
          <mxGeometry y="26" width="270" height="54" as="geometry" />
        </mxCell>
        <mxCell id="JHcrPFv-tLOBYCpDAyQ4-20" value="" style="line;strokeWidth=1;fillColor=none;align=left;verticalAlign=middle;spacingTop=-1;spacingLeft=3;spacingRight=3;rotatable=0;labelPosition=right;points=[];portConstraint=eastwest;strokeColor=inherit;" vertex="1" parent="JHcrPFv-tLOBYCpDAyQ4-18">
          <mxGeometry y="80" width="270" height="8" as="geometry" />
        </mxCell>
        <mxCell id="JHcrPFv-tLOBYCpDAyQ4-21" value="+ addMapper(Class&amp;lt;T&amp;gt; type)&lt;br&gt;+ addMappedStatement(MappedStatement ms)" style="text;strokeColor=none;fillColor=none;align=left;verticalAlign=top;spacingLeft=4;spacingRight=4;overflow=hidden;rotatable=0;points=[[0,0.5],[1,0.5]];portConstraint=eastwest;whiteSpace=wrap;html=1;" vertex="1" parent="JHcrPFv-tLOBYCpDAyQ4-18">
          <mxGeometry y="88" width="270" height="52" as="geometry" />
        </mxCell>
        <mxCell id="JHcrPFv-tLOBYCpDAyQ4-23" value="&lt;font style=&quot;font-size: 16px;&quot;&gt;&lt;b&gt;configuration.getMapper(type, this)&lt;/b&gt;&lt;/font&gt;" style="rounded=1;whiteSpace=wrap;html=1;" vertex="1" parent="1">
          <mxGeometry x="403" y="470" width="290" height="130" as="geometry" />
        </mxCell>
        <mxCell id="JHcrPFv-tLOBYCpDAyQ4-38" value="" style="rounded=1;whiteSpace=wrap;html=1;" vertex="1" parent="1">
          <mxGeometry x="40" y="870" width="700" height="200" as="geometry" />
        </mxCell>
        <mxCell id="JHcrPFv-tLOBYCpDAyQ4-25" value="PreparedStatementHandler" style="swimlane;fontStyle=1;align=center;verticalAlign=top;childLayout=stackLayout;horizontal=1;startSize=26;horizontalStack=0;resizeParent=1;resizeParentMax=0;resizeLast=0;collapsible=1;marginBottom=0;whiteSpace=wrap;html=1;fillColor=#dae8fc;strokeColor=#6c8ebf;" vertex="1" parent="1">
          <mxGeometry x="60" y="900" width="270" height="86" as="geometry" />
        </mxCell>
        <mxCell id="JHcrPFv-tLOBYCpDAyQ4-27" value="" style="line;strokeWidth=1;fillColor=none;align=left;verticalAlign=middle;spacingTop=-1;spacingLeft=3;spacingRight=3;rotatable=0;labelPosition=right;points=[];portConstraint=eastwest;strokeColor=inherit;" vertex="1" parent="JHcrPFv-tLOBYCpDAyQ4-25">
          <mxGeometry y="26" width="270" height="8" as="geometry" />
        </mxCell>
        <mxCell id="JHcrPFv-tLOBYCpDAyQ4-28" value="~ update(Statement statement&lt;br&gt;~ query(Statement statement, ResultHandler resultHandler)" style="text;strokeColor=none;fillColor=none;align=left;verticalAlign=top;spacingLeft=4;spacingRight=4;overflow=hidden;rotatable=0;points=[[0,0.5],[1,0.5]];portConstraint=eastwest;whiteSpace=wrap;html=1;" vertex="1" parent="JHcrPFv-tLOBYCpDAyQ4-25">
          <mxGeometry y="34" width="270" height="52" as="geometry" />
        </mxCell>
        <mxCell id="JHcrPFv-tLOBYCpDAyQ4-29" value="DefaultSqlSession" style="swimlane;fontStyle=1;align=center;verticalAlign=top;childLayout=stackLayout;horizontal=1;startSize=26;horizontalStack=0;resizeParent=1;resizeParentMax=0;resizeLast=0;collapsible=1;marginBottom=0;whiteSpace=wrap;html=1;fillColor=#dae8fc;strokeColor=#6c8ebf;" vertex="1" parent="1">
          <mxGeometry x="400" y="670" width="270" height="180" as="geometry" />
        </mxCell>
        <mxCell id="JHcrPFv-tLOBYCpDAyQ4-30" value="- configuratioon:&amp;nbsp; Configuration&lt;br&gt;- executor: Executor" style="text;strokeColor=none;fillColor=none;align=left;verticalAlign=top;spacingLeft=4;spacingRight=4;overflow=hidden;rotatable=0;points=[[0,0.5],[1,0.5]];portConstraint=eastwest;whiteSpace=wrap;html=1;" vertex="1" parent="JHcrPFv-tLOBYCpDAyQ4-29">
          <mxGeometry y="26" width="270" height="34" as="geometry" />
        </mxCell>
        <mxCell id="JHcrPFv-tLOBYCpDAyQ4-31" value="" style="line;strokeWidth=1;fillColor=none;align=left;verticalAlign=middle;spacingTop=-1;spacingLeft=3;spacingRight=3;rotatable=0;labelPosition=right;points=[];portConstraint=eastwest;strokeColor=inherit;" vertex="1" parent="JHcrPFv-tLOBYCpDAyQ4-29">
          <mxGeometry y="60" width="270" height="8" as="geometry" />
        </mxCell>
        <mxCell id="JHcrPFv-tLOBYCpDAyQ4-32" value="+ selectOne(String statement, Object parameter)&lt;br&gt;&lt;font color=&quot;#cc0000&quot;&gt;+ selectListString statement, Object parameter)&lt;br&gt;+ insert(String statement, Object parameter)&lt;br&gt;+ update(String statement, Object parameter)&lt;br&gt;+ delete(String statement, Object parameter)&lt;/font&gt;&lt;br&gt;+&amp;nbsp; commit()&lt;br&gt;+ getMapper(Class&amp;lt;T&amp;gt; type)" style="text;strokeColor=none;fillColor=none;align=left;verticalAlign=top;spacingLeft=4;spacingRight=4;overflow=hidden;rotatable=0;points=[[0,0.5],[1,0.5]];portConstraint=eastwest;whiteSpace=wrap;html=1;" vertex="1" parent="JHcrPFv-tLOBYCpDAyQ4-29">
          <mxGeometry y="68" width="270" height="112" as="geometry" />
        </mxCell>
        <mxCell id="JHcrPFv-tLOBYCpDAyQ4-53" value="&lt;font size=&quot;1&quot; style=&quot;&quot;&gt;&lt;b style=&quot;font-size: 15px;&quot;&gt;映射构建器&lt;/b&gt;&lt;/font&gt;" style="text;html=1;align=center;verticalAlign=middle;resizable=0;points=[];autosize=1;strokeColor=none;fillColor=none;flipV=0;flipH=0;container=1;" vertex="1" parent="1">
          <mxGeometry x="-61" y="131" width="100" height="30" as="geometry" />
        </mxCell>
        <mxCell id="JHcrPFv-tLOBYCpDAyQ4-35" value="Executor" style="swimlane;fontStyle=1;align=center;verticalAlign=top;childLayout=stackLayout;horizontal=1;startSize=26;horizontalStack=0;resizeParent=1;resizeParentMax=0;resizeLast=0;collapsible=1;marginBottom=0;whiteSpace=wrap;html=1;fillColor=#dae8fc;strokeColor=#6c8ebf;" vertex="1" parent="1">
          <mxGeometry x="400" y="900" width="270" height="160" as="geometry" />
        </mxCell>
        <mxCell id="JHcrPFv-tLOBYCpDAyQ4-36" value="" style="line;strokeWidth=1;fillColor=none;align=left;verticalAlign=middle;spacingTop=-1;spacingLeft=3;spacingRight=3;rotatable=0;labelPosition=right;points=[];portConstraint=eastwest;strokeColor=inherit;" vertex="1" parent="JHcrPFv-tLOBYCpDAyQ4-35">
          <mxGeometry y="26" width="270" height="8" as="geometry" />
        </mxCell>
        <mxCell id="JHcrPFv-tLOBYCpDAyQ4-37" value="~ update(MappedStatement ms,Object parameter)&lt;br&gt;~ query(MappedStatement ms, Object parameter, RowBounds rowBounds, ResultHandler resultHandler, BoundSql boundSql)" style="text;strokeColor=none;fillColor=none;align=left;verticalAlign=top;spacingLeft=4;spacingRight=4;overflow=hidden;rotatable=0;points=[[0,0.5],[1,0.5]];portConstraint=eastwest;whiteSpace=wrap;html=1;" vertex="1" parent="JHcrPFv-tLOBYCpDAyQ4-35">
          <mxGeometry y="34" width="270" height="126" as="geometry" />
        </mxCell>
        <mxCell id="JHcrPFv-tLOBYCpDAyQ4-40" value="&lt;b&gt;&lt;font style=&quot;font-size: 20px;&quot;&gt;SQL执行&lt;/font&gt;&lt;/b&gt;" style="text;html=1;align=center;verticalAlign=middle;resizable=0;points=[];autosize=1;strokeColor=none;fillColor=none;" vertex="1" parent="1">
          <mxGeometry x="340" y="1083" width="100" height="40" as="geometry" />
        </mxCell>
        <mxCell id="JHcrPFv-tLOBYCpDAyQ4-41" value="&lt;b&gt;&lt;font style=&quot;font-size: 20px;&quot;&gt;SQL解析&lt;/font&gt;&lt;/b&gt;" style="text;html=1;align=center;verticalAlign=middle;resizable=0;points=[];autosize=1;strokeColor=none;fillColor=none;" vertex="1" parent="1">
          <mxGeometry x="485" y="30" width="100" height="40" as="geometry" />
        </mxCell>
        <mxCell id="JHcrPFv-tLOBYCpDAyQ4-43" value="" style="shape=curlyBracket;whiteSpace=wrap;html=1;rounded=1;labelPosition=left;verticalLabelPosition=middle;align=right;verticalAlign=middle;" vertex="1" parent="1">
          <mxGeometry x="30" y="86" width="20" height="120" as="geometry" />
        </mxCell>
        <mxCell id="JHcrPFv-tLOBYCpDAyQ4-44" value="" style="shape=curlyBracket;whiteSpace=wrap;html=1;rounded=1;labelPosition=left;verticalLabelPosition=middle;align=right;verticalAlign=middle;size=0.5;" vertex="1" parent="1">
          <mxGeometry x="30" y="285" width="20" height="120" as="geometry" />
        </mxCell>
        <mxCell id="JHcrPFv-tLOBYCpDAyQ4-47" value="" style="shape=curlyBracket;whiteSpace=wrap;html=1;rounded=1;labelPosition=left;verticalLabelPosition=middle;align=right;verticalAlign=middle;size=0.5;" vertex="1" parent="1">
          <mxGeometry x="30" y="480" width="20" height="120" as="geometry" />
        </mxCell>
        <mxCell id="JHcrPFv-tLOBYCpDAyQ4-48" value="MapperMethod" style="swimlane;fontStyle=1;align=center;verticalAlign=top;childLayout=stackLayout;horizontal=1;startSize=26;horizontalStack=0;resizeParent=1;resizeParentMax=0;resizeLast=0;collapsible=1;marginBottom=0;whiteSpace=wrap;html=1;fillColor=#dae8fc;strokeColor=#6c8ebf;" vertex="1" parent="1">
          <mxGeometry x="60" y="660" width="270" height="100" as="geometry" />
        </mxCell>
        <mxCell id="JHcrPFv-tLOBYCpDAyQ4-49" value="- command: SqlCommand&lt;br&gt;- method: MethodSignature" style="text;strokeColor=none;fillColor=none;align=left;verticalAlign=top;spacingLeft=4;spacingRight=4;overflow=hidden;rotatable=0;points=[[0,0.5],[1,0.5]];portConstraint=eastwest;whiteSpace=wrap;html=1;" vertex="1" parent="JHcrPFv-tLOBYCpDAyQ4-48">
          <mxGeometry y="26" width="270" height="34" as="geometry" />
        </mxCell>
        <mxCell id="JHcrPFv-tLOBYCpDAyQ4-50" value="" style="line;strokeWidth=1;fillColor=none;align=left;verticalAlign=middle;spacingTop=-1;spacingLeft=3;spacingRight=3;rotatable=0;labelPosition=right;points=[];portConstraint=eastwest;strokeColor=inherit;" vertex="1" parent="JHcrPFv-tLOBYCpDAyQ4-48">
          <mxGeometry y="60" width="270" height="8" as="geometry" />
        </mxCell>
        <mxCell id="JHcrPFv-tLOBYCpDAyQ4-51" value="+ execute(SqlSession sqlSession, Object[] args)" style="text;strokeColor=none;fillColor=none;align=left;verticalAlign=top;spacingLeft=4;spacingRight=4;overflow=hidden;rotatable=0;points=[[0,0.5],[1,0.5]];portConstraint=eastwest;whiteSpace=wrap;html=1;" vertex="1" parent="JHcrPFv-tLOBYCpDAyQ4-48">
          <mxGeometry y="68" width="270" height="32" as="geometry" />
        </mxCell>
        <mxCell id="JHcrPFv-tLOBYCpDAyQ4-52" value="" style="shape=curlyBracket;whiteSpace=wrap;html=1;rounded=1;labelPosition=left;verticalLabelPosition=middle;align=right;verticalAlign=middle;size=0.5;" vertex="1" parent="1">
          <mxGeometry x="30" y="650" width="20" height="120" as="geometry" />
        </mxCell>
        <mxCell id="JHcrPFv-tLOBYCpDAyQ4-54" value="&lt;font size=&quot;1&quot; style=&quot;&quot;&gt;&lt;b style=&quot;font-size: 15px;&quot;&gt;映射构建器助手&lt;/b&gt;&lt;/font&gt;" style="text;html=1;align=center;verticalAlign=middle;resizable=0;points=[];autosize=1;strokeColor=none;fillColor=none;flipV=0;flipH=0;container=1;" vertex="1" parent="1">
          <mxGeometry x="-87" y="330" width="130" height="30" as="geometry" />
        </mxCell>
        <mxCell id="JHcrPFv-tLOBYCpDAyQ4-55" value="&lt;font size=&quot;1&quot; style=&quot;&quot;&gt;&lt;b style=&quot;font-size: 15px;&quot;&gt;配置类&lt;/b&gt;&lt;/font&gt;" style="text;html=1;align=center;verticalAlign=middle;resizable=0;points=[];autosize=1;strokeColor=none;fillColor=none;flipV=0;flipH=0;container=1;" vertex="1" parent="1">
          <mxGeometry x="-34" y="525" width="70" height="30" as="geometry" />
        </mxCell>
        <mxCell id="JHcrPFv-tLOBYCpDAyQ4-56" value="&lt;font size=&quot;1&quot; style=&quot;&quot;&gt;&lt;b style=&quot;font-size: 15px;&quot;&gt;映射器方法&lt;/b&gt;&lt;/font&gt;" style="text;html=1;align=center;verticalAlign=middle;resizable=0;points=[];autosize=1;strokeColor=none;fillColor=none;flipV=0;flipH=0;container=1;" vertex="1" parent="1">
          <mxGeometry x="-64" y="695" width="100" height="30" as="geometry" />
        </mxCell>
        <mxCell id="JHcrPFv-tLOBYCpDAyQ4-57" value="" style="endArrow=open;endSize=12;dashed=1;html=1;rounded=0;" edge="1" parent="1">
          <mxGeometry x="-0.014" width="160" relative="1" as="geometry">
            <mxPoint x="331" y="150" as="sourcePoint" />
            <mxPoint x="400" y="150" as="targetPoint" />
            <mxPoint as="offset" />
          </mxGeometry>
        </mxCell>
        <mxCell id="JHcrPFv-tLOBYCpDAyQ4-58" value="依赖" style="endArrow=open;endSize=12;dashed=1;html=1;rounded=0;entryX=0.526;entryY=-0.008;entryDx=0;entryDy=0;entryPerimeter=0;" edge="1" parent="1" target="JHcrPFv-tLOBYCpDAyQ4-14">
          <mxGeometry width="160" relative="1" as="geometry">
            <mxPoint x="202" y="210" as="sourcePoint" />
            <mxPoint x="-50" y="250" as="targetPoint" />
          </mxGeometry>
        </mxCell>
        <mxCell id="JHcrPFv-tLOBYCpDAyQ4-59" value="依赖" style="endArrow=open;endSize=12;dashed=1;html=1;rounded=0;" edge="1" parent="1">
          <mxGeometry width="160" relative="1" as="geometry">
            <mxPoint x="202" y="410" as="sourcePoint" />
            <mxPoint x="200" y="470" as="targetPoint" />
          </mxGeometry>
        </mxCell>
        <mxCell id="JHcrPFv-tLOBYCpDAyQ4-60" value="" style="endArrow=none;dashed=1;html=1;dashPattern=1 3;strokeWidth=2;rounded=0;exitX=1;exitY=0.5;exitDx=0;exitDy=0;entryX=0;entryY=0.654;entryDx=0;entryDy=0;entryPerimeter=0;" edge="1" parent="1" source="JHcrPFv-tLOBYCpDAyQ4-19" target="JHcrPFv-tLOBYCpDAyQ4-23">
          <mxGeometry width="50" height="50" relative="1" as="geometry">
            <mxPoint x="470" y="420" as="sourcePoint" />
            <mxPoint x="520" y="370" as="targetPoint" />
          </mxGeometry>
        </mxCell>
        <mxCell id="JHcrPFv-tLOBYCpDAyQ4-61" value="依赖" style="endArrow=open;endSize=12;dashed=1;html=1;rounded=0;entryX=0;entryY=0.5;entryDx=0;entryDy=0;" edge="1" parent="1" source="JHcrPFv-tLOBYCpDAyQ4-49" target="JHcrPFv-tLOBYCpDAyQ4-30">
          <mxGeometry width="160" relative="1" as="geometry">
            <mxPoint x="352" y="630" as="sourcePoint" />
            <mxPoint x="350" y="690" as="targetPoint" />
          </mxGeometry>
        </mxCell>
        <mxCell id="JHcrPFv-tLOBYCpDAyQ4-62" value="" style="endArrow=none;dashed=1;html=1;dashPattern=1 3;strokeWidth=2;rounded=0;exitX=0.5;exitY=1;exitDx=0;exitDy=0;entryX=0.552;entryY=0;entryDx=0;entryDy=0;entryPerimeter=0;" edge="1" parent="1" source="JHcrPFv-tLOBYCpDAyQ4-23" target="JHcrPFv-tLOBYCpDAyQ4-29">
          <mxGeometry width="50" height="50" relative="1" as="geometry">
            <mxPoint x="477" y="610" as="sourcePoint" />
            <mxPoint x="550" y="642" as="targetPoint" />
          </mxGeometry>
        </mxCell>
        <mxCell id="JHcrPFv-tLOBYCpDAyQ4-63" value="" style="endArrow=open;endSize=12;dashed=1;html=1;rounded=0;entryX=0.5;entryY=0;entryDx=0;entryDy=0;exitX=0.493;exitY=1.027;exitDx=0;exitDy=0;exitPerimeter=0;" edge="1" parent="1" source="JHcrPFv-tLOBYCpDAyQ4-32" target="JHcrPFv-tLOBYCpDAyQ4-35">
          <mxGeometry width="160" relative="1" as="geometry">
            <mxPoint x="320" y="810.41" as="sourcePoint" />
            <mxPoint x="390" y="813.41" as="targetPoint" />
          </mxGeometry>
        </mxCell>
      </root>
    </mxGraphModel>
  </diagram>
</mxfile>
